<svg width="20" height="20" viewBox="0 0 20 20" fill="none" xmlns="http://www.w3.org/2000/svg">
<rect width="20" height="20" fill="white"/>
<rect width="20" height="20" rx="6" fill="#34A853"/>
<path d="M8.49995 13.528C8.40875 13.5281 8.31842 13.5101 8.23416 13.4752C8.1499 13.4403 8.07338 13.3891 8.00898 13.3245L5.34243 10.6579C5.27734 10.5936 5.22562 10.517 5.19024 10.4326C5.15485 10.3482 5.1365 10.2577 5.13623 10.1661C5.13597 10.0746 5.1538 9.98396 5.1887 9.89935C5.2236 9.81475 5.27488 9.73788 5.33959 9.67317C5.40431 9.60845 5.48117 9.55717 5.56577 9.52226C5.65038 9.48736 5.74104 9.46952 5.83256 9.46978C5.92408 9.47004 6.01464 9.48839 6.09905 9.52377C6.18345 9.55915 6.26003 9.61087 6.32437 9.67595L8.49995 11.8515L13.6758 6.67574C13.8061 6.54596 13.9826 6.47319 14.1665 6.47339C14.3504 6.47359 14.5267 6.54673 14.6567 6.67678C14.7868 6.80683 14.8599 6.98316 14.8601 7.16707C14.8603 7.35098 14.7875 7.52745 14.6577 7.65776L8.99093 13.3245C8.92653 13.3891 8.85 13.4403 8.76574 13.4752C8.68149 13.5101 8.59116 13.5281 8.49995 13.528Z" fill="#F8FCFF"/>
<path d="M8.49995 13.528C8.40875 13.5281 8.31842 13.5101 8.23416 13.4752C8.1499 13.4403 8.07338 13.3891 8.00898 13.3245L5.34243 10.6579C5.27734 10.5936 5.22562 10.517 5.19024 10.4326C5.15485 10.3482 5.1365 10.2577 5.13623 10.1661C5.13597 10.0746 5.1538 9.98396 5.1887 9.89935C5.2236 9.81475 5.27488 9.73788 5.33959 9.67317C5.40431 9.60845 5.48117 9.55717 5.56577 9.52226C5.65038 9.48736 5.74104 9.46952 5.83256 9.46978C5.92408 9.47004 6.01464 9.48839 6.09905 9.52377C6.18345 9.55915 6.26003 9.61087 6.32437 9.67595L8.49995 11.8515L13.6758 6.67574C13.8061 6.54596 13.9826 6.47319 14.1665 6.47339C14.3504 6.47359 14.5267 6.54673 14.6567 6.67678C14.7868 6.80683 14.8599 6.98316 14.8601 7.16707C14.8603 7.35098 14.7875 7.52745 14.6577 7.65776L8.99093 13.3245C8.92653 13.3891 8.85 13.4403 8.76574 13.4752C8.68149 13.5101 8.59116 13.5281 8.49995 13.528Z" fill="#F8FCFF"/>
</svg>
